<svg width="800" height="800" viewBox="0 0 800 800" fill="none" xmlns="http://www.w3.org/2000/svg">
<path d="M569 519L569 275.614C569 222.808 526.192 180 473.386 180L325.614 180C272.808 180 230 222.808 230 275.614L230 519L569 519Z" fill="#8759F2"/>
<path d="M399.5 382C427.39 382 450 359.39 450 331.5V331.5C450 303.61 427.39 281 399.5 281V281C371.61 281 349 303.61 349 331.5V331.5C349 359.39 371.61 382 399.5 382V382Z" fill="#F5F5F7"/>
<path d="M301 519C301 574.781 346.219 620 402 620C457.781 620 503 574.781 503 519L301 519Z" fill="#FFC300"/>
<path d="M301 519C301 463.219 346.219 418 402 418C457.781 418 503 463.219 503 519L301 519Z" fill="#FF3E80"/>
</svg>
