<svg width="24" height="24" viewBox="0 0 24 24" fill="none" xmlns="http://www.w3.org/2000/svg">
<path d="M18.9375 21H4.0625C3.4757 21 3 20.5664 3 20.0315V10.6927C3.01646 10.4554 3.12712 10.2316 3.31131 10.0632L10.7488 3.28404C10.9481 3.10218 11.2185 3 11.5005 3C11.7825 3 12.053 3.10218 12.2522 3.28404L19.6897 10.0632C19.8892 10.2446 20.0009 10.4911 20 10.7479V20.0315C20 20.5664 19.5243 21 18.9375 21ZM11.5 5.33813L5.125 11.1489V19.0631H17.875V11.1489L11.5 5.33813ZM9.90625 17.6675L7.03112 15.0527L8.525 13.6794L9.90625 14.9307L14.475 10.7741L15.9752 12.1454L9.90625 17.6675Z" fill="#7449D8"/>
</svg>
