<svg width="232" height="232" viewBox="0 0 232 232" fill="none" xmlns="http://www.w3.org/2000/svg">
<path d="M187 167L187 95.5C187 56.0117 154.988 24 115.5 24C76.0116 24 44 56.0116 44 95.5L44 167L187 167Z" fill="#8759F2"/>
<path d="M115 109C126.598 109 136 99.598 136 88L136 87C136 75.402 126.598 66 115 66C103.402 66 94 75.402 94 87L94 88C94 99.598 103.402 109 115 109Z" fill="#F5F5F7"/>
<path d="M74 167C74 190.196 93.0279 209 116.5 209C139.972 209 159 190.196 159 167L74 167Z" fill="#FFC300"/>
<path d="M74 167C74 143.252 93.0279 124 116.5 124C139.972 124 159 143.252 159 167L74 167Z" fill="#FF3E80"/>
</svg>
